<svg width="547" height="42" viewBox="0 0 547 42" fill="none" xmlns="http://www.w3.org/2000/svg">
<path d="M0.513672 8.8V6H17.7137V8.8L13.5137 9.7L19.7637 28L25.8637 6H32.5137L39.9137 28.05L44.7637 9.9L40.7137 8.8V6H53.3137V8.8L48.7137 9.9L40.2137 41.35H35.3637L26.9637 16.05L19.8137 41.35H15.2637L4.86367 9.85L0.513672 8.8ZM50.5176 28.2C50.5176 24.2667 51.6176 21.1333 53.8176 18.8C56.0509 16.4333 59.0676 15.25 62.8676 15.25C66.7342 15.25 69.6509 16.5667 71.6176 19.2C73.6176 21.8333 74.6176 25.0833 74.6176 28.95H58.2176C58.4509 31.4167 59.3342 33.55 60.8676 35.35C62.4009 37.1167 64.3676 38 66.7676 38C68.5676 38 70.5009 37.6167 72.5676 36.85L73.6176 39.7C70.5176 41.0667 67.4842 41.75 64.5176 41.75C60.2176 41.75 56.8009 40.5 54.2676 38C51.7676 35.4667 50.5176 32.2 50.5176 28.2ZM58.2176 25.85L66.6676 25.3C66.6676 24.5 66.6176 23.7667 66.5176 23.1C66.4176 22.4 66.1342 21.5667 65.6676 20.6C64.8342 19.2 63.8509 18.5 62.7176 18.5C61.3842 18.5 60.2842 19.1833 59.4176 20.55C58.9176 21.3833 58.5842 22.3 58.4176 23.3C58.2509 24.3 58.1842 25.15 58.2176 25.85ZM89.2465 23.5C89.2465 18.1 90.7298 13.7167 93.6965 10.35C96.6965 6.95 100.963 5.25 106.496 5.25C111.963 5.25 116.196 6.91667 119.196 10.25C122.23 13.5833 123.746 18 123.746 23.5C123.746 28.9667 122.23 33.3833 119.196 36.75C116.196 40.0833 111.963 41.75 106.496 41.75C101.03 41.75 96.7798 40.1 93.7465 36.8C90.7465 33.4667 89.2465 29.0333 89.2465 23.5ZM106.496 38.3C109.396 38.3 111.596 37.0167 113.096 34.45C114.596 31.85 115.346 28.2 115.346 23.5C115.346 18.8 114.58 15.1667 113.046 12.6C111.546 10 109.363 8.7 106.496 8.7C103.596 8.7 101.396 10 99.8965 12.6C98.3965 15.1667 97.6465 18.8 97.6465 23.5C97.6465 28.2 98.3798 31.85 99.8465 34.45C101.346 37.0167 103.563 38.3 106.496 38.3ZM127.217 41V38.35L131.467 37.35V19.2H127.267V16.35L131.467 16.05V12.3C131.467 8.4 132.351 5.41666 134.117 3.35C135.917 1.28333 138.484 0.249997 141.817 0.249997C143.217 0.249997 144.684 0.399997 146.217 0.699997C147.751 0.966665 148.934 1.23333 149.767 1.5L151.017 1.9C151.051 3.06666 150.767 4.21666 150.167 5.35C149.601 6.45 148.867 7.23333 147.967 7.7L143.817 3.5C143.151 3.5 142.567 3.6 142.067 3.8C141.601 4 141.117 4.38333 140.617 4.95C140.151 5.51666 139.784 6.41666 139.517 7.65C139.284 8.88333 139.167 10.4333 139.167 12.3V15.55L146.017 15.1V19.2H139.167V37.35L145.067 38.35V41H127.217ZM148.457 41V38.35L152.707 37.35V19.2H148.507V16.35L152.707 16.05V12.3C152.707 8.4 153.591 5.41666 155.357 3.35C157.157 1.28333 159.724 0.249997 163.057 0.249997C164.457 0.249997 165.924 0.399997 167.457 0.699997C168.991 0.966665 170.174 1.23333 171.007 1.5L172.257 1.9C172.291 3.06666 172.007 4.21666 171.407 5.35C170.841 6.45 170.107 7.23333 169.207 7.7L165.057 3.5C164.391 3.5 163.807 3.6 163.307 3.8C162.841 4 162.357 4.38333 161.857 4.95C161.391 5.51666 161.024 6.41666 160.757 7.65C160.524 8.88333 160.407 10.4333 160.407 12.3V15.55L167.257 15.1V19.2H160.407V37.35L166.307 38.35V41H148.457ZM169.463 28.2C169.463 24.2667 170.563 21.1333 172.763 18.8C174.996 16.4333 178.013 15.25 181.813 15.25C185.68 15.25 188.596 16.5667 190.563 19.2C192.563 21.8333 193.563 25.0833 193.563 28.95H177.163C177.396 31.4167 178.28 33.55 179.813 35.35C181.346 37.1167 183.313 38 185.713 38C187.513 38 189.446 37.6167 191.513 36.85L192.563 39.7C189.463 41.0667 186.43 41.75 183.463 41.75C179.163 41.75 175.746 40.5 173.213 38C170.713 35.4667 169.463 32.2 169.463 28.2ZM177.163 25.85L185.613 25.3C185.613 24.5 185.563 23.7667 185.463 23.1C185.363 22.4 185.08 21.5667 184.613 20.6C183.78 19.2 182.796 18.5 181.663 18.5C180.33 18.5 179.23 19.1833 178.363 20.55C177.863 21.3833 177.53 22.3 177.363 23.3C177.196 24.3 177.13 25.15 177.163 25.85ZM196.459 41V38.35L200.709 37.35V20.55H196.459V17.9L204.459 16H208.409V19C210.909 16.5 213.876 15.25 217.309 15.25C217.509 15.8833 217.609 16.5833 217.609 17.35C217.609 18.8833 217.442 20.3167 217.109 21.65L210.809 20.6C210.009 20.9667 209.209 21.5 208.409 22.2V37.35L213.659 38.35V41H196.459ZM231.082 41V38.2L235.682 37.1V9.9L231.082 8.8V6H246.382C250.282 6 253.382 6.68333 255.682 8.05C257.982 9.38333 259.132 11.5333 259.132 14.5C259.132 16.3 258.482 17.9333 257.182 19.4C255.882 20.8333 254.348 21.7667 252.582 22.2V22.35C255.348 22.85 257.548 23.8833 259.182 25.45C260.815 26.9833 261.632 28.8833 261.632 31.15C261.632 34.1167 260.365 36.5 257.832 38.3C255.298 40.1 252.098 41 248.232 41H231.082ZM243.832 37.45H245.582C250.748 37.45 253.332 35.35 253.332 31.15C253.332 29.1167 252.698 27.5333 251.432 26.4C250.198 25.2667 248.332 24.7 245.832 24.7H243.832V37.45ZM243.832 21.05H244.532C246.298 21.05 247.782 20.5167 248.982 19.45C250.215 18.3833 250.832 16.8833 250.832 14.95C250.832 11.35 248.632 9.55 244.232 9.55H243.832V21.05ZM264.971 28.2C264.971 24.2667 266.071 21.1333 268.271 18.8C270.504 16.4333 273.521 15.25 277.321 15.25C281.187 15.25 284.104 16.5667 286.071 19.2C288.071 21.8333 289.071 25.0833 289.071 28.95H272.671C272.904 31.4167 273.787 33.55 275.321 35.35C276.854 37.1167 278.821 38 281.221 38C283.021 38 284.954 37.6167 287.021 36.85L288.071 39.7C284.971 41.0667 281.937 41.75 278.971 41.75C274.671 41.75 271.254 40.5 268.721 38C266.221 35.4667 264.971 32.2 264.971 28.2ZM272.671 25.85L281.121 25.3C281.121 24.5 281.071 23.7667 280.971 23.1C280.871 22.4 280.587 21.5667 280.121 20.6C279.287 19.2 278.304 18.5 277.171 18.5C275.837 18.5 274.737 19.1833 273.871 20.55C273.371 21.3833 273.037 22.3 272.871 23.3C272.704 24.3 272.637 25.15 272.671 25.85ZM292.567 40.6V33.45H295.367L297.167 38.4C298.367 38.4667 299.317 38.5 300.017 38.5C303.917 38.5 305.867 37.65 305.867 35.95C305.867 35.25 305.517 34.65 304.817 34.15C304.117 33.6167 303.45 33.2 302.817 32.9C302.183 32.6 300.983 32.0667 299.217 31.3C296.917 30.3 295.233 29.1667 294.167 27.9C293.133 26.6 292.617 24.9333 292.617 22.9C292.617 20.4 293.617 18.5 295.617 17.2C297.65 15.9 300.3 15.25 303.567 15.25C306.533 15.25 309.083 15.5667 311.217 16.2V23H308.617L307.067 18.6C306.067 18.4333 305.067 18.35 304.067 18.35C300.867 18.35 299.267 19.1333 299.267 20.7C299.267 21.1 299.417 21.5167 299.717 21.95C300.017 22.3833 300.55 22.8167 301.317 23.25C302.117 23.6833 303.367 24.2667 305.067 25C308.1 26.3667 310.15 27.7 311.217 29C312.283 30.2667 312.817 31.9833 312.817 34.15C312.817 36.6167 311.8 38.5 309.767 39.8C307.733 41.1 305.033 41.75 301.667 41.75C298.5 41.75 295.467 41.3667 292.567 40.6ZM315.939 19.5V17.5L324.439 11.45H326.289V16.25L332.489 16V19.5H326.289V33.8C326.289 35.4333 326.472 36.5833 326.839 37.25C327.206 37.9167 327.956 38.25 329.089 38.25C329.922 38.25 331.039 37.95 332.439 37.35L333.239 40.15C331.239 41.2167 329.122 41.75 326.889 41.75C321.356 41.75 318.589 39.1833 318.589 34.05V19.5H315.939ZM347.018 39.4V30.2H349.818L352.368 37.2C353.768 37.7 355.518 37.95 357.618 37.95C359.885 37.95 361.835 37.55 363.468 36.75C365.135 35.95 365.968 34.7667 365.968 33.2C365.968 32.8333 365.918 32.4833 365.818 32.15C365.752 31.8167 365.618 31.5 365.418 31.2C365.218 30.9 365.018 30.6333 364.818 30.4C364.618 30.1333 364.318 29.8667 363.918 29.6C363.518 29.3 363.168 29.0667 362.868 28.9C362.568 28.7 362.118 28.45 361.518 28.15C360.952 27.85 359.935 27.35 358.468 26.65L356.668 25.8C353.368 24.2 351.002 22.5333 349.568 20.8C348.135 19.0333 347.418 16.8667 347.418 14.3C347.418 11.5667 348.552 9.38333 350.818 7.75C353.085 6.08333 356.018 5.25 359.618 5.25C363.652 5.25 367.285 5.76667 370.518 6.8V16H367.718L365.268 9.3C363.902 9 362.585 8.85 361.318 8.85C359.352 8.85 357.668 9.2 356.268 9.9C354.868 10.5667 354.168 11.55 354.168 12.85C354.168 14.0167 354.718 15 355.818 15.8C356.952 16.5667 358.952 17.5833 361.818 18.85L362.818 19.3C366.218 20.8333 368.718 22.5333 370.318 24.4C371.918 26.2667 372.718 28.5333 372.718 31.2C372.718 33.7 372.085 35.75 370.818 37.35C369.585 38.9167 367.952 40.05 365.918 40.75C363.885 41.4167 361.568 41.75 358.968 41.75C354.835 41.75 350.852 40.9667 347.018 39.4ZM376.445 28.2C376.445 24.2667 377.545 21.1333 379.745 18.8C381.979 16.4333 384.995 15.25 388.795 15.25C392.662 15.25 395.579 16.5667 397.545 19.2C399.545 21.8333 400.545 25.0833 400.545 28.95H384.145C384.379 31.4167 385.262 33.55 386.795 35.35C388.329 37.1167 390.295 38 392.695 38C394.495 38 396.429 37.6167 398.495 36.85L399.545 39.7C396.445 41.0667 393.412 41.75 390.445 41.75C386.145 41.75 382.729 40.5 380.195 38C377.695 35.4667 376.445 32.2 376.445 28.2ZM384.145 25.85L392.595 25.3C392.595 24.5 392.545 23.7667 392.445 23.1C392.345 22.4 392.062 21.5667 391.595 20.6C390.762 19.2 389.779 18.5 388.645 18.5C387.312 18.5 386.212 19.1833 385.345 20.55C384.845 21.3833 384.512 22.3 384.345 23.3C384.179 24.3 384.112 25.15 384.145 25.85ZM403.441 41V38.35L407.691 37.35V20.55H403.441V17.9L411.441 16H415.391V19C417.891 16.5 420.858 15.25 424.291 15.25C424.491 15.8833 424.591 16.5833 424.591 17.35C424.591 18.8833 424.425 20.3167 424.091 21.65L417.791 20.6C416.991 20.9667 416.191 21.5 415.391 22.2V37.35L420.641 38.35V41H403.441ZM425.081 18.65V16H440.381V18.65L436.981 19.45L442.031 31.4L446.981 19.5L443.681 18.65V16H454.531V18.65L450.331 19.75L441.431 41.35H437.931L428.681 19.7L425.081 18.65ZM455.785 41V38.35L460.035 37.35V20.55H455.785V17.9L463.785 16H467.735V37.35L471.985 38.35V41H455.785ZM459.235 8.3C459.235 7 459.685 5.91667 460.585 5.05C461.485 4.15 462.585 3.7 463.885 3.7C465.218 3.7 466.318 4.15 467.185 5.05C468.085 5.91667 468.535 7 468.535 8.3C468.535 9.63333 468.085 10.75 467.185 11.65C466.318 12.55 465.218 13 463.885 13C462.585 13 461.485 12.55 460.585 11.65C459.685 10.75 459.235 9.63333 459.235 8.3ZM474.149 28.4C474.149 24.5333 475.416 21.3833 477.949 18.95C480.516 16.4833 483.533 15.25 486.999 15.25C489.899 15.25 492.749 15.95 495.549 17.35C495.449 20.1167 494.233 22.15 491.899 23.45L487.599 18.5H487.299C485.899 18.9 484.666 19.9333 483.599 21.6C482.533 23.2333 481.999 25.5333 481.999 28.5C481.966 31.8333 482.716 34.3333 484.249 36C485.683 37.3667 487.549 38.05 489.849 38.05C490.816 38.05 491.749 37.9667 492.649 37.8C493.583 37.6333 494.533 37.4 495.499 37.1L496.099 40.05C493.399 41.1833 490.633 41.75 487.799 41.75C484.033 41.75 480.816 40.55 478.149 38.15C475.483 35.75 474.149 32.5 474.149 28.4ZM498.418 28.2C498.418 24.2667 499.518 21.1333 501.718 18.8C503.951 16.4333 506.968 15.25 510.768 15.25C514.635 15.25 517.551 16.5667 519.518 19.2C521.518 21.8333 522.518 25.0833 522.518 28.95H506.118C506.351 31.4167 507.235 33.55 508.768 35.35C510.301 37.1167 512.268 38 514.668 38C516.468 38 518.401 37.6167 520.468 36.85L521.518 39.7C518.418 41.0667 515.385 41.75 512.418 41.75C508.118 41.75 504.701 40.5 502.168 38C499.668 35.4667 498.418 32.2 498.418 28.2ZM506.118 25.85L514.568 25.3C514.568 24.5 514.518 23.7667 514.418 23.1C514.318 22.4 514.035 21.5667 513.568 20.6C512.735 19.2 511.751 18.5 510.618 18.5C509.285 18.5 508.185 19.1833 507.318 20.55C506.818 21.3833 506.485 22.3 506.318 23.3C506.151 24.3 506.085 25.15 506.118 25.85ZM526.014 40.6V33.45H528.814L530.614 38.4C531.814 38.4667 532.764 38.5 533.464 38.5C537.364 38.5 539.314 37.65 539.314 35.95C539.314 35.25 538.964 34.65 538.264 34.15C537.564 33.6167 536.897 33.2 536.264 32.9C535.631 32.6 534.431 32.0667 532.664 31.3C530.364 30.3 528.681 29.1667 527.614 27.9C526.581 26.6 526.064 24.9333 526.064 22.9C526.064 20.4 527.064 18.5 529.064 17.2C531.097 15.9 533.747 15.25 537.014 15.25C539.981 15.25 542.531 15.5667 544.664 16.2V23H542.064L540.514 18.6C539.514 18.4333 538.514 18.35 537.514 18.35C534.314 18.35 532.714 19.1333 532.714 20.7C532.714 21.1 532.864 21.5167 533.164 21.95C533.464 22.3833 533.997 22.8167 534.764 23.25C535.564 23.6833 536.814 24.2667 538.514 25C541.547 26.3667 543.597 27.7 544.664 29C545.731 30.2667 546.264 31.9833 546.264 34.15C546.264 36.6167 545.247 38.5 543.214 39.8C541.181 41.1 538.481 41.75 535.114 41.75C531.947 41.75 528.914 41.3667 526.014 40.6Z" fill="#14183E"/>
</svg>
